<svg width="10" height="10" viewBox="0 0 10 10" fill="none" xmlns="http://www.w3.org/2000/svg">
<path d="M1.0225 3.30811C1.1397 3.19094 1.29865 3.12512 1.46437 3.12512C1.6301 3.12512 1.78904 3.19094 1.90625 3.30811L5 6.40186L8.09375 3.30811C8.21163 3.19426 8.3695 3.13127 8.53338 3.13269C8.69725 3.13412 8.85401 3.19985 8.96989 3.31573C9.08577 3.43161 9.1515 3.58836 9.15292 3.75224C9.15434 3.91611 9.09135 4.07399 8.9775 4.19186L5.44187 7.72749C5.32467 7.84466 5.16573 7.91048 5 7.91048C4.83427 7.91048 4.67533 7.84466 4.55812 7.72749L1.0225 4.19186C0.90533 4.07466 0.839508 3.91572 0.839508 3.74999C0.839508 3.58426 0.90533 3.42532 1.0225 3.30811Z" fill="#FAFAFA"/>
</svg>
