<svg width="30" height="30" viewBox="0 0 30 30" fill="none" xmlns="http://www.w3.org/2000/svg">
<g clip-path="url(#clip0_1_72)">
<path d="M30 0H0V30H30V0Z" stroke="white" stroke-width="0.0002"/>
<path d="M18.21 6.26995C21.015 9.07495 21.375 13.3949 19.29 16.6049C19.47 16.7549 19.62 16.9199 19.83 17.0699C20.13 17.3099 20.535 17.6099 21.045 17.9549C21.555 18.3149 21.885 18.5399 22.035 18.6599C22.665 19.1249 23.13 19.5149 23.445 19.8299C23.925 20.3099 24.345 20.8049 24.705 21.3299C25.08 21.8549 25.365 22.3649 25.59 22.8899C25.8 23.4149 25.905 23.9099 25.86 24.3899C25.83 24.8699 25.65 25.2749 25.32 25.6049C24.99 25.9349 24.585 26.1149 24.105 26.1449C23.64 26.1749 23.13 26.0849 22.62 25.8599C22.095 25.6499 21.57 25.3499 21.06 24.9749C20.535 24.6149 20.04 24.1949 19.56 23.7149C19.245 23.3999 18.855 22.9349 18.405 22.3199C18.255 22.1249 18.03 21.7949 17.7 21.3299C17.37 20.8499 17.1 20.4749 16.86 20.1599C16.62 19.8599 16.425 19.6349 16.2 19.4099C13.095 21.0449 9.16501 20.5499 6.54001 17.9399C3.33001 14.7149 3.33001 9.47995 6.54001 6.26995C9.76501 3.04495 14.985 3.04495 18.21 6.26995ZM16.095 15.8099C18.135 13.7549 18.135 10.4399 16.095 8.38495C14.04 6.32995 10.71 6.32995 8.67001 8.38495C6.61501 10.4399 6.61501 13.7549 8.67001 15.8099C10.71 17.8649 14.04 17.8649 16.095 15.8099Z" fill="white" stroke="white" stroke-width="0.0002"/>
</g>
<defs>
<clipPath id="clip0_1_72">
<rect width="30" height="30" fill="white"/>
</clipPath>
</defs>
</svg>
