<svg width="22" height="22" viewBox="0 0 22 22" fill="none" xmlns="http://www.w3.org/2000/svg">
<path fill-rule="evenodd" clip-rule="evenodd" d="M6.1875 16.504C5.05656 16.504 4.125 17.4356 4.125 18.5665C4.125 19.6975 5.05656 20.629 6.1875 20.629C7.31844 20.629 8.25 19.6975 8.25 18.5665C8.25 17.4356 7.31844 16.504 6.1875 16.504ZM6.1875 17.879C6.57534 17.879 6.875 18.1787 6.875 18.5665C6.875 18.9544 6.57534 19.254 6.1875 19.254C5.79966 19.254 5.5 18.9544 5.5 18.5665C5.5 18.1787 5.79966 17.879 6.1875 17.879Z" fill="black"/>
<path fill-rule="evenodd" clip-rule="evenodd" d="M16.5 16.504C15.3691 16.504 14.4375 17.4356 14.4375 18.5665C14.4375 19.6975 15.3691 20.629 16.5 20.629C17.6309 20.629 18.5625 19.6975 18.5625 18.5665C18.5625 17.4356 17.6309 16.504 16.5 16.504ZM16.5 17.879C16.8878 17.879 17.1875 18.1787 17.1875 18.5665C17.1875 18.9544 16.8878 19.254 16.5 19.254C16.1122 19.254 15.8125 18.9544 15.8125 18.5665C15.8125 18.1787 16.1122 17.879 16.5 17.879Z" fill="black"/>
<path fill-rule="evenodd" clip-rule="evenodd" d="M2.0625 1.37903C1.6828 1.37903 1.375 1.68684 1.375 2.06653C1.375 2.44622 1.6828 2.75403 2.0625 2.75403H2.87354L4.69568 11.858C3.95952 12.1744 3.4375 12.9081 3.4375 13.754C3.4375 14.8848 4.36927 15.8165 5.5 15.8165H17.8831C18.2628 15.8165 18.5706 15.5087 18.5706 15.129C18.5706 14.7493 18.2628 14.4415 17.8831 14.4415H5.5C5.10723 14.4415 4.8125 14.1468 4.8125 13.754C4.8125 13.3613 5.10723 13.0665 5.5 13.0665H16.5081H18.5706C18.9089 13.0667 19.1971 12.8207 19.25 12.4865L20.4397 4.92395C20.5057 4.50647 20.1829 4.12884 19.7603 4.12903H4.55066L4.11157 1.93225C4.04751 1.61072 3.76535 1.37915 3.4375 1.37903H2.0625ZM4.82593 5.50403H18.9559L17.9824 11.6915L6.06396 11.6875L4.82593 5.50403ZM7.5625 6.87903C7.1828 6.87903 6.875 7.18684 6.875 7.56653C6.875 7.94622 7.1828 8.25403 7.5625 8.25403H16.5081C16.8878 8.25403 17.1956 7.94622 17.1956 7.56653C17.1956 7.18684 16.8878 6.87903 16.5081 6.87903H7.5625ZM8.9375 8.94153C8.5578 8.94153 8.25 9.24934 8.25 9.62903C8.25 10.0087 8.5578 10.3165 8.9375 10.3165H15.1331C15.5128 10.3165 15.8206 10.0087 15.8206 9.62903C15.8206 9.24934 15.5128 8.94153 15.1331 8.94153H8.9375Z" fill="black"/>
</svg>
