<svg width="397" height="27" viewBox="0 0 397 27" fill="none" xmlns="http://www.w3.org/2000/svg">
<path d="M55.8824 15.9557L61.5021 22.3071C62.2981 23.2067 63.7019 23.2067 64.4979 22.3071L70.1176 15.9557C71.7905 14.0649 72.6596 11.6871 71.4027 9.41967C69.9505 6.79992 67.2895 6.26448 64.9771 8.02375C64.182 8.62861 63.5294 9.31934 63.2107 9.67771C63.1 9.80224 62.9 9.80224 62.7893 9.67771C62.4706 9.31934 61.818 8.62861 61.0229 8.02375C58.7105 6.26448 56.0494 6.79992 54.5973 9.41967C53.3404 11.6871 54.2095 14.0649 55.8824 15.9557Z" stroke="#323232" stroke-width="2" stroke-linejoin="round"/>
<path fill-rule="evenodd" clip-rule="evenodd" d="M6.1875 18.504C5.05656 18.504 4.125 19.4356 4.125 20.5665C4.125 21.6975 5.05656 22.629 6.1875 22.629C7.31844 22.629 8.25 21.6975 8.25 20.5665C8.25 19.4356 7.31844 18.504 6.1875 18.504ZM6.1875 19.879C6.57534 19.879 6.875 20.1787 6.875 20.5665C6.875 20.9544 6.57534 21.254 6.1875 21.254C5.79966 21.254 5.5 20.9544 5.5 20.5665C5.5 20.1787 5.79966 19.879 6.1875 19.879Z" fill="black"/>
<path fill-rule="evenodd" clip-rule="evenodd" d="M16.5 18.504C15.3691 18.504 14.4375 19.4356 14.4375 20.5665C14.4375 21.6975 15.3691 22.629 16.5 22.629C17.6309 22.629 18.5625 21.6975 18.5625 20.5665C18.5625 19.4356 17.6309 18.504 16.5 18.504ZM16.5 19.879C16.8878 19.879 17.1875 20.1787 17.1875 20.5665C17.1875 20.9544 16.8878 21.254 16.5 21.254C16.1122 21.254 15.8125 20.9544 15.8125 20.5665C15.8125 20.1787 16.1122 19.879 16.5 19.879Z" fill="black"/>
<path fill-rule="evenodd" clip-rule="evenodd" d="M2.0625 3.37903C1.6828 3.37903 1.375 3.68684 1.375 4.06653C1.375 4.44622 1.6828 4.75403 2.0625 4.75403H2.87354L4.69568 13.858C3.95952 14.1744 3.4375 14.9081 3.4375 15.754C3.4375 16.8848 4.36927 17.8165 5.5 17.8165H17.8831C18.2628 17.8165 18.5706 17.5087 18.5706 17.129C18.5706 16.7493 18.2628 16.4415 17.8831 16.4415H5.5C5.10723 16.4415 4.8125 16.1468 4.8125 15.754C4.8125 15.3613 5.10723 15.0665 5.5 15.0665H16.5081H18.5706C18.9089 15.0667 19.1971 14.8207 19.25 14.4865L20.4397 6.92395C20.5057 6.50647 20.1829 6.12884 19.7603 6.12903H4.55066L4.11157 3.93225C4.04751 3.61072 3.76535 3.37915 3.4375 3.37903H2.0625ZM4.82593 7.50403H18.9559L17.9824 13.6915L6.06396 13.6875L4.82593 7.50403ZM7.5625 8.87903C7.1828 8.87903 6.875 9.18684 6.875 9.56653C6.875 9.94622 7.1828 10.254 7.5625 10.254H16.5081C16.8878 10.254 17.1956 9.94622 17.1956 9.56653C17.1956 9.18684 16.8878 8.87903 16.5081 8.87903H7.5625ZM8.9375 10.9415C8.5578 10.9415 8.25 11.2493 8.25 11.629C8.25 12.0087 8.5578 12.3165 8.9375 12.3165H15.1331C15.5128 12.3165 15.8206 12.0087 15.8206 11.629C15.8206 11.2493 15.5128 10.9415 15.1331 10.9415H8.9375Z" fill="black"/>
<path d="M377.882 13.9557L383.502 20.3071C384.298 21.2067 385.702 21.2067 386.498 20.3071L392.118 13.9557C393.79 12.0649 394.66 9.6871 393.403 7.41967C391.95 4.79992 389.289 4.26448 386.977 6.02375C386.182 6.62861 385.529 7.31934 385.211 7.67771C385.1 7.80224 384.9 7.80224 384.789 7.67771C384.471 7.31934 383.818 6.62861 383.023 6.02375C380.711 4.26448 378.049 4.79992 376.597 7.41967C375.34 9.6871 376.209 12.0649 377.882 13.9557Z" stroke="#323232" stroke-width="2" stroke-linejoin="round"/>
<path fill-rule="evenodd" clip-rule="evenodd" d="M328.188 16.504C327.057 16.504 326.125 17.4356 326.125 18.5665C326.125 19.6975 327.057 20.629 328.188 20.629C329.318 20.629 330.25 19.6975 330.25 18.5665C330.25 17.4356 329.318 16.504 328.188 16.504ZM328.188 17.879C328.575 17.879 328.875 18.1787 328.875 18.5665C328.875 18.9544 328.575 19.254 328.188 19.254C327.8 19.254 327.5 18.9544 327.5 18.5665C327.5 18.1787 327.8 17.879 328.188 17.879Z" fill="black"/>
<path fill-rule="evenodd" clip-rule="evenodd" d="M338.5 16.504C337.369 16.504 336.438 17.4356 336.438 18.5665C336.438 19.6975 337.369 20.629 338.5 20.629C339.631 20.629 340.562 19.6975 340.562 18.5665C340.562 17.4356 339.631 16.504 338.5 16.504ZM338.5 17.879C338.888 17.879 339.188 18.1787 339.188 18.5665C339.188 18.9544 338.888 19.254 338.5 19.254C338.112 19.254 337.812 18.9544 337.812 18.5665C337.812 18.1787 338.112 17.879 338.5 17.879Z" fill="black"/>
<path fill-rule="evenodd" clip-rule="evenodd" d="M324.062 1.37903C323.683 1.37903 323.375 1.68684 323.375 2.06653C323.375 2.44622 323.683 2.75403 324.062 2.75403H324.874L326.696 11.858C325.96 12.1744 325.437 12.9081 325.437 13.754C325.437 14.8848 326.369 15.8165 327.5 15.8165H339.883C340.263 15.8165 340.571 15.5087 340.571 15.129C340.571 14.7493 340.263 14.4415 339.883 14.4415H327.5C327.107 14.4415 326.812 14.1468 326.812 13.754C326.812 13.3613 327.107 13.0665 327.5 13.0665H338.508H340.571C340.909 13.0667 341.197 12.8207 341.25 12.4865L342.44 4.92395C342.506 4.50647 342.183 4.12884 341.76 4.12903H326.551L326.112 1.93225C326.048 1.61072 325.765 1.37915 325.437 1.37903H324.062ZM326.826 5.50403H340.956L339.982 11.6915L328.064 11.6875L326.826 5.50403ZM329.562 6.87903C329.183 6.87903 328.875 7.18684 328.875 7.56653C328.875 7.94622 329.183 8.25403 329.562 8.25403H338.508C338.888 8.25403 339.196 7.94622 339.196 7.56653C339.196 7.18684 338.888 6.87903 338.508 6.87903H329.562ZM330.937 8.94153C330.558 8.94153 330.25 9.24934 330.25 9.62903C330.25 10.0087 330.558 10.3165 330.937 10.3165H337.133C337.513 10.3165 337.821 10.0087 337.821 9.62903C337.821 9.24934 337.513 8.94153 337.133 8.94153H330.937Z" fill="black"/>
</svg>
